<svg clip-rule="evenodd" fill-rule="evenodd" height="512" image-rendering="optimizeQuality" shape-rendering="geometricPrecision" text-rendering="geometricPrecision" viewBox="0 0 6.82666 6.82666" width="512" xmlns="http://www.w3.org/2000/svg"><g id="Layer_x0020_1"><g id="_309521360"><g><path id="_309522560" d="m5.62917 5.71383h-4.43167c-.0294606 0-.0533346-.023874-.0533346-.0533307v-2.74209c0-.0294606.023874-.0533346.0533346-.0533346h4.43167c.0294606 0 .0533346.023874.0533346.0533346v2.74209c0 .0294567-.023874.0533307-.0533346.0533307zm-4.37834-.106665h4.32501v-2.63542h-4.32501z"/></g><g><path id="_309522416" d="m5.62911 5.71385c-.00955512 0-.0192362-.00258268-.0279724-.00795669l-2.19263-1.3537-2.18291 1.35365c-.0250394.0155-.0578976.0078189-.0734409-.0172244-.0155118-.0250276-.00782283-.0579016.0172205-.0734331l2.21096-1.37103c.0171811-.0106417.0389291-.010685.056126-.00005906l2.22072 1.37103c.0250551.0154724.0328346.0483386.0173583.0734016-.0100906.0163228-.0275472.0253228-.045437.0253228z"/></g><g><path id="_309522584" d="m5.62911 2.97174c-.00955512 0-.0192362-.00256693-.0279724-.00795669l-.748067-.461846c-.0250551-.0154685-.0328346-.0483346-.0173583-.0734016.0154843-.0250551.0483346-.0328425.0734016-.0173583l.748063.461846c.0250551.0154685.0328346.0483346.0173583.0734016-.0100787.0163346-.0275354.025315-.0454252.025315zm-4.43156 0c-.0178465 0-.0352913-.00896063-.0453898-.0252323-.0155118-.0250276-.00782283-.0579016.0172244-.0734331l.748063-.463886c.0250551-.0155276.0579173-.00780709.0734449.0172205.0155079.0250315.0078189.0579016-.0172244.0734331l-.748063.46389c-.00876378.0054252-.0184724.00800787-.0280551.00800787z"/></g><g><path id="_309522512" d="m4.88109 2.97174c-.0294606 0-.0533307-.023874-.0533307-.0533307v-1.69894h-2.82886v1.69894c0 .0294567-.023874.0533307-.0533346.0533307s-.0533346-.023874-.0533346-.0533307v-1.75227c0-.0294606.023874-.0533346.0533346-.0533346h2.93553c.0294606 0 .0533346.023874.0533346.0533346v1.75227c0 .0294567-.0238661.0533307-.0533346.0533307z"/></g><g><path id="_309522368" d="m3.99472 3.33774h-1.16278c-.0294567 0-.0533307-.023874-.0533307-.0533346 0-.0294567.023874-.0533307.0533307-.0533307h1.16278c.0294567 0 .0533307.023874.0533307.0533307 0 .0294606-.023878.0533346-.0533307.0533346z"/></g><g><path id="_309522104" d="m4.86671 3.76902h-2.90676c-.0294606 0-.0533346-.023874-.0533346-.0533346s.023874-.0533346.0533346-.0533346h2.90678c.0294606 0 .0533346.023874.0533346.0533346s-.0238898.0533346-.0533465.0533346z"/></g><g><g><path id="_309522728" d="m.906693 4.01062c-.0294606 0-.0533346-.023874-.0533346-.0533346v-1.03887c0-.0294606.023874-.0533346.0533346-.0533346s.0533346.023874.0533346.0533346v1.03887c0 .0294606-.0238898.0533346-.0533346.0533346z"/></g><g><path id="_309522056" d="m5.91997 5.71383c-.0294606 0-.0533346-.023874-.0533346-.0533307v-1.03887c0-.0294567.023874-.0533307.0533346-.0533307s.0533346.023874.0533346.0533307v1.03887c0 .0294567-.023874.0533307-.0533346.0533307z"/></g></g><g><path id="_309521528" d="m4.86671 4.06926h-2.90676c-.0294606 0-.0533346-.023874-.0533346-.0533307 0-.0294606.023874-.0533346.0533346-.0533346h2.90678c.0294606 0 .0533346.023874.0533346.0533346 0 .0294567-.0238898.0533307-.0533465.0533307z"/></g><g><path id="_309521480" d="m4.30924 1.56021h-1.79182c-.0294606 0-.0533346-.023874-.0533346-.0533307 0-.0294606.023874-.0533346.0533346-.0533346h1.79181c.0294567 0 .0533307.023874.0533307.0533346 0 .0294567-.0238583.0533307-.053315.0533307z"/></g><g><g><path id="_309521408" d="m3.16422 2.68183c-.254803 0-.462098-.207291-.462098-.462098s.207291-.462106.462098-.462106c.254799 0 .462094.207303.462094.462106s-.207287.462098-.462094.462098zm0-.817551c-.195984 0-.355433.159445-.355433.355441 0 .195984.159445.355445.355433.355445.19598 0 .355441-.159445.355441-.355445.00000394-.195996-.159445-.355441-.355441-.355441z"/></g><g><path id="_309521816" d="m3.66243 2.68183c-.254799 0-.462094-.207291-.462094-.462098s.207287-.462106.462094-.462106c.254803 0 .462098.207303.462098.462106s-.207295.462098-.462098.462098zm0-.817551c-.19598 0-.355441.159445-.355441.355441 0 .195984.159445.355445.355441.355445.196 0 .355445-.159445.355445-.355445 0-.195996-.159445-.355441-.355445-.355441z"/></g></g></g></g></svg>